<?xml version="1.0" encoding="UTF-8"?>
<svg id="Capa_1" data-name="Capa 1" xmlns="http://www.w3.org/2000/svg" viewBox="0 0 512 512">
  <defs>
    <style>
      .cls-1 {
        fill: #fff;
      }
    </style>
  </defs>
  <rect width="512" height="512"/>
  <circle class="cls-1" cx="256" cy="256" r="256"/>
  <path d="M296.83-15.03c-12.8,13.54-26.11,26.65-38.29,40.73-15.2,17.58-28.77,36.39-36.02,58.94-3.29,10.24-5.34,20.97-2.51,31.25,3.2,11.61.3,21.58-4.28,31.69-13.03,28.77-9.45,57.09,2.51,85.06,3.07,7.18,7.66,13.36,14.86,17.26,11.24,6.08,24.61,3.33,30.77-7.83,3.43-6.21,5.63-13.61,6.31-20.68.94-9.64.79-19.59-.46-29.2-4.98-38.17,6.67-71.3,28.44-102.06,25.38-35.86,57.16-63.22,99.17-77.56,7.99-2.73,16.36-4.36,24.56-6.5.42.83.84,1.65,1.26,2.48-2.29,1.49-4.46,3.23-6.89,4.44-17.09,8.53-34.72,16.12-51.27,25.58-36.21,20.7-58.4,52.13-68.08,92.65-7.75,32.42-11.03,65.16-4.5,97.99,3.07,15.42,8.7,30.49,14.56,45.16,11.48,28.72,18.96,58.02,16.83,89.2-3.19,46.66-16.09,90.14-41.01,130.1-17.15,27.5-39.25,50.69-61,74.27-1.16,1.25-3.01,1.85-5.93,1.41,1.93-3.28,3.64-6.71,5.82-9.8,14.75-20.95,29.07-42.08,41.01-64.91,21.64-41.36,30.62-85.46,31.1-131.62.11-10.55-.36-21.22-1.98-31.62-1.24-7.91-3.81-15.92-7.38-23.09-8.38-16.84-24.81-22.83-42.17-15.32-6.95,3.01-13.45,7.64-19.25,12.61-16.82,14.4-28.15,33.01-35.04,53.61-7.46,22.28-13.22,45.22-18.35,68.17-4.69,20.97-2.02,42.12,2.16,63.03.8,4.02,3.39,8.48-1.47,13.29-1.45-2.35-3.16-4.02-3.6-5.98-5.64-24.96-11.15-49.96-16.61-74.96-6.49-29.75,1.22-57.25,13.65-83.9,7.21-15.48,15.25-30.58,22.07-46.22,9.58-21.97,8.87-44.18.3-66.54-14.75-38.44-15.46-77.22.06-115.54,8.6-21.24,21.25-40.47,36.15-57.75,16.16-18.75,33.64-36.4,50.94-54.13,6.41-6.58,13.6-12.61,23.58-13.71Z"/>
</svg>